<?xml version="1.0" standalone="no"?>
<!DOCTYPE svg PUBLIC "-//W3C//DTD SVG 20010904//EN"
 "http://www.w3.org/TR/2001/REC-SVG-20010904/DTD/svg10.dtd">
<svg version="1.0" xmlns="http://www.w3.org/2000/svg"
 width="314.000000pt" height="314.000000pt" viewBox="0 0 314.000000 314.000000"
 preserveAspectRatio="xMidYMid meet">
<metadata>
Created by potrace 1.14, written by Peter Selinger 2001-2017
</metadata>
<g transform="translate(0.000000,314.000000) scale(0.100000,-0.100000)"
fill="#000000" stroke="none">
<path d="M2275 3076 c-255 -49 -419 -206 -488 -466 l-22 -85 0 -965 c1 -958 1
-966 22 -1048 68 -256 215 -392 438 -405 257 -14 566 153 737 398 73 105 132
250 164 400 6 32 15 535 9 535 -3 0 -28 -9 -57 -19 -57 -21 -205 -68 -305 -97
-51 -14 -63 -22 -63 -38 0 -12 -2 -131 -3 -266 -2 -225 -4 -249 -23 -291 -28
-60 -78 -116 -127 -140 -136 -70 -237 -54 -286 45 -24 48 -24 52 -28 400 -2
193 -5 601 -6 907 l-2 555 30 59 c39 76 93 112 181 120 111 11 189 -27 225
-109 24 -57 28 -95 29 -304 l0 -152 43 6 c41 6 192 30 232 38 11 2 38 7 60 11
22 4 51 9 64 12 14 2 28 6 32 9 4 2 6 98 5 212 -3 192 -5 213 -30 289 -55 171
-189 301 -367 358 -103 32 -116 34 -269 40 -82 3 -149 0 -195 -9z"/>
<path d="M63 3052 l-63 -3 0 -1283 0 -1283 37 -25 c77 -50 400 -205 409 -196
1 2 5 280 8 618 2 338 5 619 5 623 1 5 13 6 29 3 15 -3 74 -14 132 -25 109
-20 144 -26 220 -36 25 -3 54 -8 65 -10 11 -2 27 -4 36 -4 15 -1 16 -55 13
-660 -2 -363 0 -662 4 -665 5 -3 31 -8 58 -12 27 -3 51 -8 54 -9 3 -2 33 -6
65 -10 33 -3 67 -8 75 -10 8 -2 58 -7 110 -11 52 -3 98 -8 103 -11 4 -2 8 -3
8 -1 1 2 3 679 5 1505 l4 1503 -235 -1 -235 0 -1 -77 c0 -42 -2 -311 -3 -597
l-3 -520 -39 1 c-22 1 -64 5 -94 8 -30 4 -75 9 -100 12 -25 3 -56 7 -70 9 -14
2 -43 7 -66 10 -22 3 -60 9 -85 13 l-44 8 3 567 3 567 -138 1 c-76 0 -154 1
-173 2 -19 1 -63 1 -97 -1z"/>
</g>
</svg>
